<svg width="512" height="512" viewBox="0 0 512 512" fill="none" xmlns="http://www.w3.org/2000/svg">
  <!-- Outer rounded pin -->
  <path d="M256 40C356 40 438 122 438 222C438 332 322 414 268 476C265 479 247 479 244 476C190 414 74 332 74 222C74 122 156 40 256 40Z" fill="#00A7A7"/>
  <!-- Inner heart -->
  <path d="M256 128C222 128 200 150 200 182C200 206 214 225 231 238C246 249 256 260 256 260C256 260 266 249 281 238C298 225 312 206 312 182C312 150 290 128 256 128Z" fill="#FFFFFF"/>
  <!-- Paw pad (center) -->
  <path d="M256 206C240 206 228 218 228 234C228 251 244 264 256 280C268 264 284 251 284 234C284 218 272 206 256 206Z" fill="#1E1E1E"/>
  <!-- Toes -->
  <circle cx="224" cy="196" r="12" fill="#1E1E1E"/>
  <circle cx="288" cy="196" r="12" fill="#1E1E1E"/>
  <circle cx="244" cy="188" r="10" fill="#1E1E1E"/>
  <circle cx="268" cy="188" r="10" fill="#1E1E1E"/>
</svg>
