<svg width="512" height="512" viewBox="0 0 512 512" fill="none" xmlns="http://www.w3.org/2000/svg">
  <defs>
    <mask id="neg-space" x="0" y="0" width="512" height="512">
      <rect x="0" y="0" width="512" height="512" fill="white"/>
      <path d="M256 200 C232 200 214 218 214 242 C214 274 242 302 256 324 C270 302 298 274 298 242 C298 218 280 200 256 200 Z" fill="black"/>
      <circle cx="256" cy="168" r="18" fill="black"/>
    </mask>
  </defs>
  <g mask="url(#neg-space)">
    <path d="M256 32 C 353 32 432 111 432 208 C 432 322 320 410 266 472 C 263 475 249 475 246 472 C 192 410 80 322 80 208 C 80 111 159 32 256 32 Z" fill="#00A7A7" stroke="#1E1E1E" stroke-width="41" stroke-linejoin="round"/>
  </g>
</svg>
